# xmcd
#
# Track frame offsets: 
#        150
#        22410
#        43382
#        62915
#        81532
#        124430
#        157240
#        176362
#
# Disc length: 2674 seconds
#
# Revision: 0
# Processed by: cddbd v1.4PL0 Copyright (c) Steve Scherf et al.
# Submitted via: ExactAudioCopy v0.95a3
#
DISCID=7d0a7008
DTITLE=John Campbelljohn Trio - Live im Meisenfrei (23.03.2001)
DYEAR=2001
DGENRE=Blues
TTITLE0=Can't Be Satisfied
TTITLE1=Shake Your Hips
TTITLE2=Sunny Sky Slide
TTITLE3=Do The Right Thing
TTITLE4=Shake Your Moneymaker
TTITLE5=One Way Out
TTITLE6=He Love'er
TTITLE7=Mississippi Queen
EXTD=
EXTT0=
EXTT1=
EXTT2=
EXTT3=
EXTT4=
EXTT5=
EXTT6=
EXTT7=
PLAYORDER=
